<svg width="837" height="217" viewBox="0 0 837 217" fill="none" xmlns="http://www.w3.org/2000/svg">
<g style="mix-blend-mode:difference">
<path d="M0.000727624 214.137L0.000727624 63.6167L26.9807 63.6167L26.9807 85.4847H28.1167C29.6314 82.6447 31.9981 79.3314 35.2167 75.5447C38.4354 71.5687 42.7901 68.1607 48.2807 65.3207C53.9607 62.2914 61.0607 60.7767 69.5807 60.7767C80.7514 60.7767 90.1234 63.522 97.6967 69.0127C105.459 74.314 111.234 81.5087 115.021 90.5967H115.305C119.47 82.266 125.339 75.2607 132.913 69.5807C140.675 63.7114 150.71 60.7767 163.017 60.7767C179.299 60.7767 191.795 66.362 200.505 77.5327C209.403 88.514 213.853 102.714 213.853 120.133V214.137H186.873V121.553C186.873 110.382 184.222 101.389 178.921 94.5727C173.619 87.5674 165.951 84.0647 155.917 84.0647C147.207 84.0647 140.202 86.4314 134.901 91.1647C129.789 95.898 126.097 101.767 123.825 108.773C121.553 115.778 120.417 122.783 120.417 129.789V214.137H93.4367L93.4367 121.553C93.4367 110.382 90.7861 101.389 85.4847 94.5727C80.3727 87.5674 72.7047 84.0647 62.4807 84.0647C53.7714 84.0647 46.7661 86.4314 41.4647 91.1647C36.3527 95.898 32.6607 101.862 30.3887 109.057C28.1167 116.062 26.9807 122.973 26.9807 129.789L26.9807 214.137H0.000727624ZM298.933 60.7767C308.4 60.7767 316.352 62.2914 322.789 65.3207C329.226 68.35 334.433 71.9474 338.409 76.1127C342.385 80.0887 345.414 83.8754 347.497 87.4727H349.201V63.6167L376.181 63.6167L376.181 214.137H349.201V190.281H347.497C345.414 193.878 342.385 197.759 338.409 201.925C334.433 206.09 329.226 209.687 322.789 212.717C316.352 215.557 308.4 216.977 298.933 216.977C287.573 216.977 277.633 214.799 269.113 210.445C260.593 205.901 253.493 199.937 247.813 192.553C242.133 184.979 237.873 176.554 235.033 167.277C232.193 157.999 230.773 148.533 230.773 138.877C230.773 129.221 232.193 119.754 235.033 110.477C237.873 101.199 242.133 92.8687 247.813 85.4847C253.493 77.9114 260.593 71.9474 269.113 67.5927C277.633 63.0487 287.573 60.7767 298.933 60.7767ZM303.477 83.7807C293.442 83.7807 285.017 86.526 278.201 92.0167C271.385 97.318 266.273 104.134 262.865 112.465C259.646 120.795 258.037 129.599 258.037 138.877C258.037 147.965 259.646 156.769 262.865 165.289C266.273 173.619 271.385 180.53 278.201 186.021C285.017 191.322 293.442 193.973 303.477 193.973C313.512 193.973 321.842 191.322 328.469 186.021C335.285 180.53 340.302 173.619 343.521 165.289C346.929 156.769 348.633 147.965 348.633 138.877C348.633 129.599 346.929 120.795 343.521 112.465C340.302 104.134 335.285 97.318 328.469 92.0167C321.842 86.526 313.512 83.7807 303.477 83.7807ZM395.948 214.137L395.948 63.6167H422.928V82.3607H424.064C427.282 76.6807 432.016 71.6634 438.264 67.3087C444.512 62.954 453.316 60.7767 464.676 60.7767C467.894 60.7767 470.829 60.966 473.48 61.3447C476.13 61.534 477.456 61.6287 477.456 61.6287V87.4727C477.456 87.4727 475.941 87.378 472.912 87.1887C470.072 86.81 467.042 86.6207 463.824 86.6207C450.76 86.6207 440.63 90.4074 433.436 97.9807C426.43 105.365 422.928 117.482 422.928 134.333L422.928 214.137H395.948ZM510.437 34.9327C505.325 34.9327 501.065 33.2287 497.657 29.8207C494.439 26.4127 492.829 22.342 492.829 17.6087C492.829 12.686 494.439 8.5207 497.657 5.1127C501.065 1.70471 505.325 0.000716448 510.437 0.000716448C515.36 0.000716448 519.525 1.70471 522.933 5.1127C526.341 8.5207 528.045 12.686 528.045 17.6087C528.045 22.342 526.341 26.4127 522.933 29.8207C519.525 33.2287 515.36 34.9327 510.437 34.9327ZM497.089 214.137V63.6167L524.069 63.6167V214.137H497.089ZM547.832 214.137V63.6167H574.812V85.4847H576.516C577.842 83.2127 580.019 80.0887 583.048 76.1127C586.267 72.1367 590.811 68.634 596.68 65.6047C602.55 62.386 609.934 60.7767 618.832 60.7767C629.814 60.7767 639.186 63.3327 646.948 68.4447C654.711 73.3674 660.58 80.0887 664.556 88.6087C668.722 97.1287 670.804 106.69 670.804 117.293V214.137H643.824V118.997C643.824 108.962 640.984 100.631 635.304 94.0047C629.814 87.378 621.767 84.0647 611.164 84.0647C602.644 84.0647 595.734 86.242 590.432 90.5967C585.131 94.762 581.155 100.347 578.504 107.353C576.043 114.169 574.812 121.458 574.812 129.221V214.137L547.832 214.137ZM762.037 216.977C745.944 216.977 732.406 213.285 721.425 205.901C710.444 198.327 702.113 188.577 696.433 176.649C690.753 164.721 687.913 152.13 687.913 138.877C687.913 125.434 690.753 112.843 696.433 101.105C702.113 89.1767 710.444 79.5207 721.425 72.1367C732.406 64.5634 745.944 60.7767 762.037 60.7767C778.13 60.7767 791.668 64.5634 802.649 72.1367C813.63 79.5207 821.961 89.1767 827.641 101.105C833.321 112.843 836.161 125.434 836.161 138.877C836.161 152.13 833.321 164.721 827.641 176.649C821.961 188.577 813.63 198.327 802.649 205.901C791.668 213.285 778.13 216.977 762.037 216.977ZM762.037 193.405C772.261 193.405 780.781 190.849 787.597 185.737C794.602 180.435 799.809 173.619 803.217 165.289C806.814 156.958 808.613 148.154 808.613 138.877C808.613 129.41 806.814 120.606 803.217 112.465C799.809 104.134 794.602 97.4127 787.597 92.3007C780.781 86.9994 772.261 84.3487 762.037 84.3487C752.002 84.3487 743.482 86.9994 736.477 92.3007C729.472 97.4127 724.17 104.134 720.573 112.465C717.165 120.606 715.461 129.41 715.461 138.877C715.461 148.154 717.165 156.958 720.573 165.289C724.17 173.619 729.472 180.435 736.477 185.737C743.482 190.849 752.002 193.405 762.037 193.405Z" fill="white"/>
</g>
</svg>
